<mxfile host="app.diagrams.net" modified="2023-09-30T08:41:49.018Z" agent="Mozilla/5.0 (X11; Linux x86_64) AppleWebKit/537.36 (KHTML, like Gecko) Chrome/117.0.0.0 Safari/537.36" version="22.0.0" etag="W3EENkEh2vJfk0UXMLbg" type="github">
  <diagram name="Page-1" id="AzypFq6ZSjlCtyVdUmP1">
    <mxGraphModel>
      <root>
        <mxCell id="0" />
        <mxCell id="1" parent="0" />
      </root>
    </mxGraphModel>
  </diagram>
</mxfile>
